<svg version="1.1" viewBox="0.0 0.0 960.0 960.0" fill="none" stroke="none" stroke-linecap="square" stroke-miterlimit="10" xmlns:xlink="http://www.w3.org/1999/xlink" xmlns="http://www.w3.org/2000/svg"><clipPath id="p.0"><path d="m0 0l960.0 0l0 960.0l-960.0 0l0 -960.0z" clip-rule="nonzero"/></clipPath><g clip-path="url(#p.0)"><path fill="#000000" fill-opacity="0.0" d="m0 0l960.0 0l0 960.0l-960.0 0z" fill-rule="evenodd"/><path fill="#d9ead3" d="m0 160.0032l0 0c0 -88.36733 71.63587 -160.0032 160.0032 -160.0032l639.99365 0l0 0c42.435486 0 83.13287 16.857431 113.13934 46.863853c30.006409 30.006416 46.86383 70.70386 46.86383 113.13935l0 639.99365c0 88.36731 -71.635864 160.00317 -160.00317 160.00317l-639.99365 0c-88.36733 0 -160.0032 -71.635864 -160.0032 -160.00317z" fill-rule="evenodd"/><path fill="#000000" fill-opacity="0.0" d="m181.60367 189.73491l704.4094 0l0 174.5197l-704.4094 0z" fill-rule="evenodd"/><path fill="#000000" d="m235.47867 289.8024l0 19.0l8.625 0q4.625 0 6.59375 1.78125q1.96875 1.78125 1.96875 4.65625q0 2.8125 -1.96875 4.59375q-1.96875 1.78125 -6.59375 1.78125l-30.0625 0q-4.5625 0 -6.53125 -1.78125q-1.96875 -1.78125 -1.96875 -4.65625q0 -2.8125 1.96875 -4.59375q1.96875 -1.78125 6.53125 -1.78125l8.625 0l0 -19.0l-21.1875 -31.125q-4.25 0 -6.21875 -1.8125q-1.96875 -1.8124847 -1.96875 -4.6249847q0 -2.875 1.96875 -4.65625q1.96875 -1.78125 6.59375 -1.78125l11.625 0.0625q4.625 0 6.59375 1.75q1.96875 1.75 1.96875 4.625q0 4.3124847 -5.0625 6.4374847l12.125 17.875l11.875 -17.875q-2.8125 -1.0625 -4.0 -2.6874847q-1.1875 -1.625 -1.1875 -3.75q0 -2.875 1.96875 -4.625q1.96875 -1.75 6.59375 -1.8125l12.0625 0.0625q4.625 0 6.59375 1.75q1.96875 1.75 1.96875 4.625q0 2.875 -2.0 4.6562347q-2.0 1.78125 -6.5 1.78125l-21.0 31.125zm174.625 -10.3125l-54.75 0q-4.625 0 -6.59375 -1.78125q-1.96875 -1.78125 -1.96875 -4.65625q0 -2.8125 1.96875 -4.59375q1.96875 -1.78125 6.59375 -1.78125l54.75 0q4.625 0 6.59375 1.78125q1.96875 1.78125 1.96875 4.65625q0 2.8125 -1.96875 4.59375q-1.96875 1.78125 -6.59375 1.78125zm0 24.125l-54.75 0q-4.625 0 -6.59375 -1.75q-1.96875 -1.75 -1.96875 -4.625q0 -2.875 1.96875 -4.65625q1.96875 -1.78125 6.59375 -1.78125l54.75 0q4.625 0 6.59375 1.78125q1.96875 1.78125 1.96875 4.65625q0 2.875 -1.96875 4.625q-1.96875 1.75 -6.59375 1.75zm106.37503 -38.75l0 3.625q3.125 -3.0625 5.65625 -4.21875q2.53125 -1.15625 5.84375 -1.15625q2.8125 0 5.5625 1.375q2.75 1.375 5.375 4.125q3.3125 -2.75 6.71875 -4.09375q3.40625 -1.34375 6.96875 -1.34375q7.125 0 11.5625 3.8125q5.875 5.0 5.875 13.125l0 28.6875q4.0 0 5.9375 1.8125q1.9375 1.8125 1.9375 4.625q0 2.8125 -1.9375 4.59375q-1.9375 1.78125 -6.5625 1.78125l-12.1875 0l0 -40.4375q0 -2.9375 -1.0625 -4.0625q-1.0625 -1.125 -3.25 -1.125q-2.125 0 -3.9375 1.125q-2.3125 1.5625 -5.625 5.875l0 25.8125q4.0 0 5.9375 1.8125q1.9375 1.8125 1.9375 4.625q0 2.8125 -1.9375 4.59375q-1.9375 1.78125 -6.5625 1.78125l-12.1875 0l0 -40.4375q0 -2.875 -1.09375 -4.03125q-1.09375 -1.15625 -3.28125 -1.15625q-2.25 0 -4.4375 1.40625q-2.1875 1.40625 -5.25 5.59375l0 25.8125q4.0 0 5.96875 1.8125q1.96875 1.8125 1.96875 4.625q0 2.8125 -1.96875 4.59375q-1.96875 1.78125 -6.59375 1.78125l-11.5625305 0q-4.625 0 -6.59375 -1.78125q-1.96875 -1.78125 -1.96875 -4.65625q0 -2.8125 1.9375 -4.59375q1.9375 -1.78125 6.0 -1.78125l0 -31.125q-4.0625 0 -6.0 -1.8125q-1.9375 -1.8125 -1.9375 -4.625q0 -2.8125 1.96875 -4.59375q1.96875 -1.78125 6.59375 -1.78125l12.1875305 0zm106.1875 27.25l19.4375 16.6875q3.5 0.1875 5.25 1.96875q1.75 1.78125 1.75 4.46875q0 2.8125 -1.96875 4.59375q-1.96875 1.78125 -6.59375 1.78125l-14.5625 0q-4.625 0 -6.59375 -1.78125q-1.96875 -1.78125 -1.96875 -4.71875q0 -2.25 1.40625 -3.96875q1.40625 -1.71875 3.84375 -2.34375l-9.5625 -8.25l-9.75 8.25q2.9375 0.75 4.21875 2.3125q1.28125 1.5625 1.28125 4.0q0 2.9375 -1.9375 4.71875q-1.9375 1.78125 -6.5625 1.78125l-14.4375 0q-4.625 0 -6.59375 -1.78125q-1.96875 -1.78125 -1.96875 -4.65625q0 -2.625 1.75 -4.40625q1.75 -1.78125 5.25 -1.96875l19.0 -16.75l-16.8125 -14.375q-3.3125 -0.25 -5.03125 -2.03125q-1.71875 -1.78125 -1.71875 -4.40625q0 -2.8125 1.96875 -4.59375q1.96875 -1.78125 6.59375 -1.78125l12.0 0q4.625 0 6.59375 1.78125q1.96875 1.78125 1.96875 4.53125q0 3.6875 -3.5 6.0l7.75 6.4375l7.625 -6.5625q-3.4375 -2.4375 -3.4375 -5.625q0 -3.0 1.96875 -4.78125q1.96875 -1.78125 6.59375 -1.78125l11.875 0q4.625 0 6.59375 1.78125q1.96875 1.78125 1.96875 4.65625q0 2.5625 -1.71875 4.34375q-1.71875 1.78125 -5.09375 2.03125l-16.875 14.4375zm73.625 -0.5l0 21.4375q0 4.625 -1.75 6.59375q-1.75 1.96875 -4.625 1.96875q-2.875 0 -4.65625 -1.96875q-1.78125 -1.96875 -1.78125 -6.59375l0 -21.4375l-18.3125 0q-4.625 0 -6.59375 -1.78125q-1.96875 -1.78125 -1.96875 -4.65625q0 -2.875 1.96875 -4.65625q1.96875 -1.78125 6.59375 -1.71875l18.3125 0l0 -21.375q0 -4.5624847 1.78125 -6.5624847q1.78125 -2.0 4.65625 -2.0q2.875 0 4.65625 1.96875q1.78125 1.96875 1.78125 6.5937347l-0.0625 21.375l18.3125 0q4.625 0 6.59375 1.75q1.96875 1.75 1.96875 4.625q0 2.875 -1.96875 4.65625q-1.96875 1.78125 -6.59375 1.78125l-18.3125 0zm54.25 -51.062485l0 28.749985q4.6875 -3.0625 9.53125 -4.59375q4.84375 -1.53125 9.78125 -1.53125q13.3125 0 22.5625 9.1875q9.25 9.1875 9.25 22.1875q0 12.4375 -8.8125 20.78125q-8.8125 8.34375 -23.25 8.34375q-5.125 0 -9.875 -1.3125q-4.75 -1.3125 -9.1875 -3.875l0 3.125l-15.0 0q-4.625 0 -6.59375 -1.78125q-1.96875 -1.78125 -1.96875 -4.65625q0 -2.8125 2.0 -4.59375q2.0 -1.78125 6.5625 -1.78125l2.1875 0l0 -55.437485l-2.1875 0q-4.625 0 -6.59375 -1.78125q-1.96875 -1.78125 -1.96875 -4.65625q0 -2.8125 1.96875 -4.59375q1.96875 -1.78125 6.59375 -1.78125l15.0 0zm38.3125 54.374985q0 -7.9375 -5.5625 -13.4375q-5.5625 -5.5 -13.625 -5.5q-8.0 0 -13.5625 5.5q-5.5625 5.5 -5.5625 13.25q0 7.0625 5.0 11.59375q5.0 4.53125 14.125 4.53125q9.125 0 14.15625 -4.53125q5.03125 -4.53125 5.03125 -11.40625z" fill-rule="nonzero"/><path fill="#000000" fill-opacity="0.0" d="m249.97801 686.7724l410.80316 -237.19687" fill-rule="evenodd"/><path stroke="#000000" stroke-width="8.0" stroke-linejoin="round" stroke-linecap="butt" d="m249.97801 686.7724l369.2348 -213.19537" fill-rule="evenodd"/><path fill="#000000" stroke="#000000" stroke-width="8.0" stroke-linecap="butt" d="m625.8201 485.02032l24.832886 -29.596802l-38.047546 6.710205z" fill-rule="evenodd"/><path fill="#000000" fill-opacity="0.0" d="m247.3921 399.4882l0 344.59842" fill-rule="evenodd"/><path stroke="#000000" stroke-width="8.0" stroke-linejoin="round" stroke-linecap="butt" d="m247.3921 399.4882l0 344.59842" fill-rule="evenodd"/><path fill="#000000" fill-opacity="0.0" d="m716.62994 743.6483l-473.2599 0" fill-rule="evenodd"/><path stroke="#000000" stroke-width="8.0" stroke-linejoin="round" stroke-linecap="butt" d="m716.62994 743.6483l-473.2599 0" fill-rule="evenodd"/></g></svg>