<svg version="1.1" viewBox="0.0 0.0 960.0 960.0" fill="none" stroke="none" stroke-linecap="square" stroke-miterlimit="10" xmlns:xlink="http://www.w3.org/1999/xlink" xmlns="http://www.w3.org/2000/svg"><clipPath id="p.0"><path d="m0 0l960.0 0l0 960.0l-960.0 0l0 -960.0z" clip-rule="nonzero"/></clipPath><g clip-path="url(#p.0)"><path fill="#000000" fill-opacity="0.0" d="m0 0l960.0 0l0 960.0l-960.0 0z" fill-rule="evenodd"/><path fill="#f4cccc" d="m0 160.0032l0 0c0 -88.36733 71.63587 -160.0032 160.0032 -160.0032l639.99365 0l0 0c42.435486 0 83.13287 16.857431 113.13934 46.863853c30.006409 30.006416 46.86383 70.70386 46.86383 113.13935l0 639.99365c0 88.36731 -71.635864 160.00317 -160.00317 160.00317l-639.99365 0c-88.36733 0 -160.0032 -71.635864 -160.0032 -160.00317z" fill-rule="evenodd"/><path fill="#000000" fill-opacity="0.0" d="m190.46982 774.55383l567.74805 0l0 116.346436l-567.74805 0z" fill-rule="evenodd"/><path fill="#000000" d="m222.61337 858.3226q-1.0625 1.25 -1.703125 1.609375q-0.640625 0.34375 -1.578125 0.34375q-1.84375 0 -2.953125 -1.234375q-1.109375 -1.234375 -1.109375 -4.078125l0 -5.390625q0 -2.890625 1.109375 -4.125q1.109375 -1.234375 2.953125 -1.234375q1.40625 0 2.359375 0.75q0.953125 0.734375 1.453125 2.484375q0.515625 1.734375 1.0625 2.359375q1.140625 1.203125 4.03125 2.453125q2.890625 1.25 6.328125 1.25q5.34375 0 8.78125 -2.5q2.1875 -1.515625 2.1875 -3.75q0 -1.484375 -1.0625 -2.78125q-1.046875 -1.3125 -3.421875 -2.171875q-1.5625 -0.59375 -7.0 -1.609375q-6.5625 -1.203125 -9.921875 -2.921875q-3.359375 -1.71875 -5.3125 -4.84375q-1.953125 -3.125 -1.953125 -6.765625q0 -5.734375 4.796875 -10.046875q4.8125 -4.328125 12.515625 -4.328125q3.078125 0 5.71875 0.6875q2.640625 0.6875 4.78125 2.09375q1.5625 -1.53125 3.125 -1.53125q1.765625 0 2.875 1.234375q1.109375 1.234375 1.109375 4.078125l0 6.015625q0 2.890625 -1.109375 4.125q-1.109375 1.234375 -2.875 1.234375q-1.484375 0 -2.578125 -0.90625q-0.859375 -0.65625 -1.296875 -2.640625q-0.421875 -2.0 -1.078125 -2.859375q-1.140625 -1.484375 -3.40625 -2.5q-2.265625 -1.015625 -5.234375 -1.015625q-4.328125 0 -6.859375 2.015625q-2.515625 2.0 -2.515625 4.1875q0 1.484375 1.03125 2.875q1.046875 1.390625 3.03125 2.171875q1.328125 0.546875 7.484375 1.765625q6.15625 1.203125 9.453125 2.65625q3.296875 1.4375 5.484375 4.53125q2.1875 3.078125 2.1875 7.328125q0 5.9375 -4.171875 9.5q-5.546875 4.6875 -14.140625 4.6875q-3.328125 0 -6.46875 -0.8125q-3.140625 -0.796875 -6.109375 -2.390625zm62.570312 -48.640625l0 8.484375l-9.53125 0l0 -8.484375l9.53125 0zm1.09375 15.203125l0 27.453125l9.609375 0q2.890625 0 4.125 1.125q1.234375 1.109375 1.234375 2.90625q0 1.75 -1.234375 2.875q-1.234375 1.109375 -4.125 1.109375l-27.21875 0q-2.890625 0 -4.125 -1.109375q-1.234375 -1.125 -1.234375 -2.921875q0 -1.75 1.234375 -2.859375q1.234375 -1.125 4.125 -1.125l9.609375 0l0 -19.453125l-6.453125 0q-2.84375 0 -4.09375 -1.109375q-1.25 -1.109375 -1.25 -2.90625q0 -1.765625 1.21875 -2.875q1.234375 -1.109375 4.125 -1.109375l14.453125 0zm35.945312 0l0 2.6875q2.1875 -1.875 4.8125 -2.8125q2.640625 -0.9375 5.734375 -0.9375q7.109375 0 11.25 4.421875q3.28125 3.515625 3.28125 9.21875l0 14.875q2.53125 0 3.734375 1.125q1.21875 1.109375 1.21875 2.90625q0 1.75 -1.234375 2.875q-1.21875 1.109375 -4.109375 1.109375l-7.234375 0q-2.890625 0 -4.125 -1.109375q-1.21875 -1.125 -1.21875 -2.921875q0 -1.75 1.203125 -2.859375q1.21875 -1.125 3.75 -1.125l0 -15.109375q0 -2.625 -1.40625 -3.828125q-1.828125 -1.5625 -5.5 -1.5625q-2.78125 0 -4.875 1.078125q-2.078125 1.0625 -5.28125 4.546875l0 14.875q3.078125 0 3.984375 0.59375q1.90625 1.171875 1.90625 3.4375q0 1.75 -1.234375 2.875q-1.21875 1.109375 -4.109375 1.109375l-9.109375 0q-2.890625 0 -4.125 -1.109375q-1.21875 -1.125 -1.21875 -2.921875q0 -2.1875 1.875 -3.390625q0.9375 -0.59375 4.015625 -0.59375l0 -19.453125q-2.53125 0 -3.75 -1.125q-1.203125 -1.140625 -1.203125 -2.890625q0 -1.765625 1.21875 -2.875q1.234375 -1.109375 4.125 -1.109375l7.625 0zm116.671875 -9.84375q0.75 -1.015625 1.625 -1.515625q0.875 -0.515625 1.890625 -0.515625q1.765625 0 2.875 1.21875q1.109375 1.203125 1.109375 4.09375l0 6.796875q0 2.890625 -1.109375 4.125q-1.109375 1.21875 -2.875 1.21875q-1.59375 0 -2.578125 -0.890625q-0.96875 -0.90625 -1.4375 -3.359375q-0.28125 -1.640625 -1.09375 -2.546875q-1.609375 -1.75 -4.484375 -2.796875q-2.859375 -1.0625 -5.75 -1.0625q-3.59375 0 -6.609375 1.5625q-3.0 1.5625 -5.3125 5.078125q-2.296875 3.515625 -2.296875 8.359375l0 5.1875q0 5.78125 4.1875 9.65625q4.203125 3.859375 11.671875 3.859375q4.453125 0 7.53125 -1.203125q1.796875 -0.703125 3.828125 -2.78125q1.25 -1.25 1.953125 -1.609375q0.703125 -0.375 1.609375 -0.375q1.59375 0 2.796875 1.21875q1.21875 1.203125 1.21875 2.84375q0 1.640625 -1.640625 3.515625q-2.375 2.734375 -6.125 4.296875q-5.046875 2.109375 -11.140625 2.109375q-7.109375 0 -12.8125 -2.9375q-4.609375 -2.34375 -7.859375 -7.390625q-3.234375 -5.0625 -3.234375 -11.046875l0 -5.421875q0 -6.25 2.90625 -11.65625q2.921875 -5.421875 8.078125 -8.34375q5.15625 -2.9375 10.9375 -2.9375q3.46875 0 6.5 0.8125q3.03125 0.796875 5.640625 2.4375zm56.257812 28.234375q0 4.609375 -2.5625 8.9375q-2.5625 4.3125 -7.625 6.875q-5.046875 2.5625 -10.5625 2.5625q-5.46875 0 -10.46875 -2.515625q-5.0 -2.53125 -7.625 -6.859375q-2.609375 -4.34375 -2.609375 -9.078125q0 -4.796875 2.65625 -9.421875q2.65625 -4.640625 7.640625 -7.296875q4.984375 -2.65625 10.40625 -2.65625q5.46875 0 10.53125 2.71875q5.0625 2.71875 7.640625 7.3125q2.578125 4.578125 2.578125 9.421875zm-8.015625 0.046875q0 -3.875 -2.765625 -7.109375q-3.796875 -4.375 -9.96875 -4.375q-5.421875 0 -9.0625 3.484375q-3.625 3.46875 -3.625 8.03125q0 3.75 3.671875 7.015625q3.671875 3.265625 9.015625 3.265625q5.390625 0 9.0625 -3.265625q3.671875 -3.265625 3.671875 -7.046875zm43.867157 -9.0625q-1.953125 -1.21875 -4.109375 -1.8125q-2.140625 -0.609375 -4.484375 -0.609375q-4.640625 0 -7.375 1.515625q-1.21875 0.671875 -1.21875 1.453125q0 0.890625 1.640625 1.75q1.25 0.625 5.59375 1.21875q7.96875 1.09375 11.09375 2.1875q4.09375 1.4375 6.3125 4.296875q2.234375 2.84375 2.234375 6.015625q0 4.296875 -3.78125 7.1875q-5.4375 4.1875 -14.109375 4.1875q-3.46875 0 -6.421875 -0.609375q-2.953125 -0.609375 -5.4062195 -1.78125q-0.59375 0.5 -1.265625 0.78125q-0.65625 0.265625 -1.359375 0.265625q-1.875 0 -2.984375 -1.21875q-1.109375 -1.234375 -1.109375 -4.125l0 -2.703125q0 -2.890625 1.109375 -4.109375q1.109375 -1.234375 2.90625 -1.234375q1.453125 0 2.421875 0.796875q0.984375 0.796875 1.5312195 2.75q1.828125 1.5625 4.40625 2.375q2.578125 0.796875 5.9375 0.796875q5.515625 0 8.5625 -1.71875q1.4375 -0.859375 1.4375 -1.796875q0 -1.5625 -2.0625 -2.578125q-2.078125 -1.015625 -8.5625 -1.71875q-9.640625 -1.015625 -12.8905945 -3.90625q-3.234375 -2.859375 -3.234375 -7.03125q0 -4.296875 3.625 -7.15625q4.9218445 -3.90625 12.8905945 -3.90625q2.78125 0 5.328125 0.53125q2.5625 0.53125 4.90625 1.625q0.75 -0.546875 1.390625 -0.8125q0.640625 -0.28125 1.1875 -0.28125q1.640625 0 2.734375 1.234375q1.09375 1.21875 1.09375 4.109375l0 1.953125q0 2.625 -0.625 3.5625q-1.25 1.796875 -3.390625 1.796875q-1.453125 0 -2.546875 -0.890625q-1.09375 -0.90625 -1.40625 -2.390625zm91.25 -13.25l0 31.328125l5.390625 0q2.890625 0 4.125 1.125q1.234375 1.109375 1.234375 2.90625q0 1.75 -1.234375 2.875q-1.234375 1.109375 -4.125 1.109375l-18.75 0q-2.890625 0 -4.125 -1.109375q-1.21875 -1.125 -1.21875 -2.921875q0 -1.75 1.21875 -2.859375q1.234375 -1.125 4.125 -1.125l5.359375 0l0 -31.328125l-8.671875 0l0 7.578125q0 2.890625 -1.125 4.125q-1.109375 1.234375 -2.90625 1.234375q-1.75 0 -2.875 -1.234375q-1.109375 -1.234375 -1.109375 -4.125l0 -15.625l41.484375 0.046875l0 15.578125q0 2.890625 -1.109375 4.125q-1.109375 1.234375 -2.90625 1.234375q-1.765625 0 -2.875 -1.234375q-1.109375 -1.234375 -1.109375 -4.125l0 -7.578125l-8.796875 0zm51.335938 39.34375l0 -1.875q-3.015625 1.59375 -6.65625 2.390625q-3.625 0.8125 -6.59375 0.8125q-6.4375 0 -10.46875 -3.421875q-4.015625 -3.421875 -4.015625 -7.5625q0 -5.03125 5.125 -9.34375q5.140625 -4.328125 14.203125 -4.328125q3.640625 0 8.40625 0.78125l0 -1.90625q0 -1.796875 -1.546875 -2.921875q-1.546875 -1.140625 -5.875 -1.140625q-3.5625 0 -9.21875 1.40625q-2.109375 0.5 -3.28125 0.5q-1.609375 0 -2.71875 -1.140625q-1.109375 -1.15625 -1.109375 -2.953125q0 -1.015625 0.390625 -1.75q0.390625 -0.75 1.09375 -1.203125q0.703125 -0.453125 2.921875 -1.078125q2.96875 -0.8125 6.046875 -1.296875q3.09375 -0.5 5.59375 -0.5q7.46875 0 11.578125 3.234375q4.125 3.21875 4.125 8.796875l0 16.484375l1.375 0q2.890625 0 4.109375 1.125q1.234375 1.109375 1.234375 2.90625q0 1.75 -1.234375 2.875q-1.21875 1.109375 -4.109375 1.109375l-9.375 0zm0 -14.34375q-4.8125 -0.9375 -8.875 -0.9375q-4.875 0 -8.390625 2.390625q-2.1875 1.515625 -2.1875 3.078125q0 1.140625 1.046875 1.84375q1.953125 1.28125 5.359375 1.28125q2.890625 0 6.53125 -1.125q3.65625 -1.140625 6.515625 -3.09375l0 -3.4375zm32.695312 -21.125l0 2.6875q2.1875 -1.875 4.8125 -2.8125q2.640625 -0.9375 5.734375 -0.9375q7.109375 0 11.25 4.421875q3.28125 3.515625 3.28125 9.21875l0 14.875q2.53125 0 3.734375 1.125q1.21875 1.109375 1.21875 2.90625q0 1.75 -1.234375 2.875q-1.21875 1.109375 -4.109375 1.109375l-7.234375 0q-2.890625 0 -4.125 -1.109375q-1.21875 -1.125 -1.21875 -2.921875q0 -1.75 1.203125 -2.859375q1.21875 -1.125 3.75 -1.125l0 -15.109375q0 -2.625 -1.40625 -3.828125q-1.828125 -1.5625 -5.5 -1.5625q-2.78125 0 -4.875 1.078125q-2.078125 1.0625 -5.28125 4.546875l0 14.875q3.078125 0 3.984375 0.59375q1.90625 1.171875 1.90625 3.4375q0 1.75 -1.234375 2.875q-1.21875 1.109375 -4.109375 1.109375l-9.109375 0q-2.890625 0 -4.125 -1.109375q-1.21875 -1.125 -1.21875 -2.921875q0 -2.1875 1.875 -3.390625q0.9375 -0.59375 4.015625 -0.59375l0 -19.453125q-2.53125 0 -3.75 -1.125q-1.203125 -1.140625 -1.203125 -2.890625q0 -1.765625 1.21875 -2.875q1.234375 -1.109375 4.125 -1.109375l7.625 0z" fill-rule="nonzero"/><path fill="#000000" fill-opacity="0.0" d="m386.25198 58.020996l464.91336 0l0 116.34645l-464.91336 0z" fill-rule="evenodd"/><path fill="#000000" d="m422.12698 93.14912l0 8.484375l-9.53125 0l0 -8.484375l9.53125 0zm1.09375 15.203125l0 27.453133l9.609375 0q2.890625 0 4.125 1.125q1.234375 1.109375 1.234375 2.90625q0 1.75 -1.234375 2.875q-1.234375 1.109375 -4.125 1.109375l-27.21875 0q-2.890625 0 -4.125 -1.109375q-1.234375 -1.125 -1.234375 -2.921875q0 -1.75 1.234375 -2.859375q1.234375 -1.125 4.125 -1.125l9.609375 0l0 -19.453133l-6.453125 0q-2.84375 0 -4.09375 -1.109375q-1.25 -1.109375 -1.25 -2.90625q0 -1.765625 1.21875 -2.875q1.234375 -1.109375 4.125 -1.109375l14.453125 0zm109.21872 9.140625l-34.21872 0q-2.890625 0 -4.125 -1.109375q-1.21875 -1.125 -1.21875 -2.921875q0 -1.75 1.21875 -2.859375q1.234375 -1.125 4.125 -1.125l34.21872 0q2.890625 0 4.125 1.125q1.234375 1.109375 1.234375 2.90625q0 1.75 -1.234375 2.875q-1.234375 1.109375 -4.125 1.109375zm0 15.078133l-34.21872 0q-2.890625 0 -4.125 -1.09375q-1.21875 -1.09375 -1.21875 -2.890625q0 -1.7968826 1.21875 -2.9062576q1.234375 -1.125 4.125 -1.125l34.21872 0q2.890625 0 4.125 1.125q1.234375 1.109375 1.234375 2.9062576q0 1.796875 -1.234375 2.890625q-1.234375 1.09375 -4.125 1.09375zm97.9375 -61.765633l2.890625 0l-12.1875 76.06251l-19.375 -39.890633l-7.734375 3.5625l-1.328125 -2.5l11.75 -5.90625l15.828125 32.156258l10.15625 -63.484383zm26.054688 53.5625q0 -6.84375 2.265625 -13.828125q1.671875 -5.15625 5.1875 -11.484375q2.546875 -4.53125 3.75 -5.5625q1.21875 -1.046875 2.703125 -1.046875q1.71875 0 2.890625 1.171875q1.171875 1.171875 1.171875 2.8125q0 1.140625 -0.9375 2.703125q-4.21875 6.90625 -6.15625 12.96875q-1.9375 6.046875 -1.9375 12.265625q0 6.2500076 1.9375 12.312508q1.9375 6.046875 6.15625 12.96875q0.9375 1.515625 0.9375 2.6875q0 1.640625 -1.171875 2.8125q-1.171875 1.171875 -2.890625 1.171875q-1.453125 0 -2.546875 -0.9375q-1.5625 -1.359375 -4.140625 -6.125q-3.703125 -6.921875 -5.078125 -11.421875q-2.140625 -6.875 -2.140625 -13.468758zm67.64844 0.390625l-33.4375 0l0 -7.3125l33.4375 0l0 7.3125zm35.320312 -32.78125l0 43.828133l8.078125 0q2.890625 0 4.125 1.125q1.234375 1.109375 1.234375 2.90625q0 1.75 -1.234375 2.875q-1.234375 1.109375 -4.125 1.109375l-24.171875 0q-2.890625 0 -4.125 -1.109375q-1.234375 -1.125 -1.234375 -2.921875q0 -1.75 1.234375 -2.859375q1.234375 -1.125 4.125 -1.125l8.078125 0l0 -33.390633l-7.140625 1.875q-1.71875 0.46875 -2.578125 0.46875q-1.53125 0 -2.640625 -1.203125q-1.109375 -1.21875 -1.109375 -2.984375q0 -1.59375 0.8125 -2.515625q0.828125 -0.921875 3.4375 -1.625l17.234375 -4.453125zm47.335938 32.390625q0 6.8281326 -2.265625 13.859383q-1.671875 5.15625 -5.1875 11.453125q-2.546875 4.53125 -3.765625 5.578125q-1.203125 1.0625 -2.6875 1.0625q-1.71875 0 -2.890625 -1.171875q-1.171875 -1.171875 -1.171875 -2.8125q0 -1.171875 0.9375 -2.6875q4.21875 -6.921875 6.15625 -12.96875q1.9375 -6.0625 1.9375 -12.312508q0 -6.21875 -1.9375 -12.265625q-1.9375 -6.0625 -6.15625 -12.96875q-0.9375 -1.5625 -0.9375 -2.703125q0 -1.640625 1.171875 -2.8125q1.171875 -1.171875 2.890625 -1.171875q1.453125 0 2.546875 0.9375q1.5625 1.328125 4.140625 6.140625q3.703125 6.90625 5.078125 11.359375q2.140625 6.921875 2.140625 13.484375z" fill-rule="nonzero"/><path fill="#000000" fill-opacity="0.0" d="m86.402504 153.44432l0 581.4173" fill-rule="evenodd"/><path stroke="#000000" stroke-width="8.0" stroke-linejoin="round" stroke-linecap="butt" d="m86.402504 153.44432l0 581.4173" fill-rule="evenodd"/><path fill="#000000" fill-opacity="0.0" d="m661.6063 734.8459l-581.41736 0" fill-rule="evenodd"/><path stroke="#000000" stroke-width="8.0" stroke-linejoin="round" stroke-linecap="butt" d="m661.6063 734.8459l-581.41736 0" fill-rule="evenodd"/><path fill="#000000" fill-opacity="0.0" d="m479.13947 261.2527l-393.22836 205.51181" fill-rule="evenodd"/><path stroke="#000000" stroke-width="8.0" stroke-linejoin="round" stroke-linecap="butt" d="m454.8411 273.95166l-368.93 192.8128" fill-rule="evenodd"/><path fill="#000000" stroke="#000000" stroke-width="8.0" stroke-linecap="butt" d="m454.84106 273.95166l-3.8062744 12.140533l17.739624 -19.422455l-26.073883 3.475647z" fill-rule="evenodd"/><path fill="#000000" fill-opacity="0.0" d="m498.38977 276.65625l-188.91339 458.2047" fill-rule="evenodd"/><path stroke="#000000" stroke-width="8.0" stroke-linejoin="round" stroke-linecap="butt" d="m487.93948 302.00314l-178.4631 432.85782" fill-rule="evenodd"/><path fill="#000000" stroke="#000000" stroke-width="8.0" stroke-linecap="butt" d="m487.93948 302.00314l4.8882446 11.746704l1.1042175 -26.281311l-17.739166 19.422882z" fill-rule="evenodd"/><path fill="#000000" fill-opacity="0.0" d="m166.61433 273.92596l188.91338 0.06298828l0 77.5748l-188.91338 -0.06298828z" fill-rule="evenodd"/><path fill="#000000" d="m189.98933 312.5294l0 11.671875l6.84375 0.0022583008q1.734375 5.79834E-4 2.46875 0.672699q0.734375 0.67211914 0.734375 1.7502441q0 1.046875 -0.734375 1.7185059q-0.734375 0.67163086 -2.46875 0.671051l-14.515625 -0.0048217773q-1.734375 -5.79834E-4 -2.46875 -0.672699q-0.734375 -0.67211914 -0.734375 -1.7502441q0 -1.046875 0.734375 -1.7185059q0.734375 -0.67163086 2.46875 -0.671051l2.859375 9.460449E-4l0 -11.671875l-2.296875 -7.6293945E-4q-1.734375 -5.79834E-4 -2.46875 -0.657074q-0.734375 -0.67211914 -0.734375 -1.7502441q0 -1.0625 0.734375 -1.7185059q0.734375 -0.67163086 2.46875 -0.671051l2.296875 7.6293945E-4l0 -1.828125q0 -3.140625 2.359375 -5.2179565q2.359375 -2.0773315 6.828125 -2.0758667q2.0 6.713867E-4 4.609375 0.3765564q2.609375 0.3602295 3.34375 1.0167236q0.75 0.65649414 0.75 1.6877441q0 1.09375 -0.65625 1.7966614q-0.65625 0.6872864 -1.625 0.6869812q-0.4375 -1.5258789E-4 -1.328125 -0.17233276q-2.984375 -0.5791321 -5.28125 -0.579895q-2.390625 -7.9345703E-4 -3.296875 0.71765137q-0.890625 0.70285034 -0.890625 1.7653503l0 1.828125l7.40625 0.0024414062q1.734375 5.79834E-4 2.46875 0.672699q0.734375 0.65649414 0.734375 1.7346191q0 1.0625 -0.734375 1.7341309q-0.734375 0.65600586 -2.46875 0.655426l-7.40625 -0.0024414062zm27.117188 4.821533q0 -4.109375 1.359375 -8.296417q1.0 -3.0934143 3.109375 -6.8895874q1.53125 -2.7182617 2.25 -3.3430176q0.734375 -0.62475586 1.625 -0.6244507q1.03125 3.3569336E-4 1.734375 0.70370483q0.703125 0.70336914 0.703125 1.6877441q0 0.6875 -0.5625 1.6247864q-2.53125 4.139801 -3.703125 7.7800293q-1.15625 3.6246033 -1.15625 7.3589783q0 3.75 1.15625 7.3910217q1.171875 3.6253967 3.703125 7.782501q0.5625 0.9064331 0.5625 1.6095581q0 0.984375 -0.703125 1.6872559q-0.703125 0.70288086 -1.734375 0.70254517q-0.875 -3.0517578E-4 -1.53125 -0.5630188q-0.9375 -0.8128052 -2.484375 -3.672699q-2.21875 -4.1569824 -3.046875 -6.860382q-1.28125 -4.1254272 -1.28125 -8.078552zm34.117188 0.62075806l7.2968597 6.252411q1.3125 0.07858276 1.96875 0.7506714q0.65625 0.6564636 0.65625 1.6720886q0 1.046875 -0.75 1.7185059q-0.734375 0.67163086 -2.46875 0.671051l-5.4531097 -0.0018310547q-1.734375 -5.79834E-4 -2.484375 -0.672699q-0.734375 -0.67211914 -0.734375 -1.7658691q0 -0.84375 0.53125 -1.4841919q0.53125 -0.6560669 1.4375 -0.8901367l-3.578125 -3.0949402l-3.65625 3.0925293q1.09375 0.2816162 1.578125 0.8755188q0.484375 0.5782776 0.484375 1.5001526q0 1.09375 -0.734375 1.7653809q-0.71875 0.67163086 -2.453125 0.671051l-5.421875 -0.0018005371q-1.734375 -5.79834E-4 -2.46875 -0.672699q-0.734375 -0.67211914 -0.734375 -1.7502441q0 -0.984375 0.65625 -1.6404114q0.65625 -0.6716614 1.96875 -0.7493286l7.125 -6.2788696l-6.3125 -5.3927307q-1.234375 -0.094177246 -1.890625 -0.75064087q-0.640625 -0.6720886 -0.640625 -1.6564636q0 -1.0625 0.734375 -1.7185059q0.75 -0.67163086 2.484375 -0.671051l4.5 0.0014953613q1.734375 5.79834E-4 2.46875 0.672699q0.734375 0.65649414 0.734375 1.6877441q0 1.390625 -1.3125 2.2495728l2.90625 2.4228516l2.859375 -2.467804q-1.28125 -0.90667725 -1.28125 -2.1098022q0 -1.125 0.734375 -1.7810059q0.734375 -0.67163086 2.46875 -0.671051l4.4531097 0.0014953613q1.734375 5.79834E-4 2.46875 0.672699q0.75 0.65649414 0.75 1.7346191q0 0.96875 -0.65625 1.6404114q-0.640625 0.6560364 -1.90625 0.74935913l-6.3281097 5.4197693zm27.257797 -0.6003113q0 4.09375 -1.359375 8.312073q-1.0 3.0934143 -3.109375 6.8739624q-1.53125 2.7182312 -2.265625 3.342987q-0.71875 0.64038086 -1.609375 0.6400757q-1.03125 -3.3569336E-4 -1.734375 -0.70370483q-0.703125 -0.7033386 -0.703125 -1.6877136q0 -0.703125 0.5625 -1.6091919q2.53125 -4.155426 3.6875 -7.7800293q1.171875 -3.6402283 1.171875 -7.3902283q0 -3.734375 -1.171875 -7.3597717q-1.15625 -3.6410217 -3.6875 -7.7824707q-0.5625 -0.9376831 -0.5625 -1.6251831q0 -0.984375 0.703125 -1.6872864q0.703125 -0.70288086 1.734375 -0.70254517q0.875 3.0517578E-4 1.53125 0.5630188q0.9375 0.7971802 2.484375 3.688324q2.21875 4.1413574 3.046875 6.813507q1.28125 4.1566772 1.28125 8.094177z" fill-rule="nonzero"/><path fill="#000000" fill-opacity="0.0" d="m386.25134 592.5209l188.91339 0.06298828l0 77.57483l-188.91339 -0.06298828z" fill-rule="evenodd"/><path fill="#000000" d="m409.62634 631.1243l0 11.671875l6.84375 0.0022583008q1.734375 6.1035156E-4 2.46875 0.6727295q0.734375 0.67211914 0.734375 1.7502441q0 1.046875 -0.734375 1.7185059q-0.734375 0.67163086 -2.46875 0.6710205l-14.515625 -0.0048217773q-1.734375 -6.1035156E-4 -2.46875 -0.6727295q-0.734375 -0.67211914 -0.734375 -1.7502441q0 -1.046875 0.734375 -1.7185059q0.734375 -0.67163086 2.46875 -0.6710205l2.859375 9.1552734E-4l0 -11.671875l-2.296875 -7.324219E-4q-1.734375 -6.1035156E-4 -2.46875 -0.6571045q-0.734375 -0.67211914 -0.734375 -1.7502441q0 -1.0625 0.734375 -1.7185059q0.734375 -0.67163086 2.46875 -0.6710205l2.296875 7.324219E-4l0 -1.828125q0 -3.140625 2.359375 -5.2179565q2.359375 -2.0773315 6.828125 -2.0758057q2.0 6.713867E-4 4.609375 0.37652588q2.609375 0.3602295 3.34375 1.0167236q0.75 0.65649414 0.75 1.6877441q0 1.09375 -0.65625 1.7966919q-0.65625 0.68725586 -1.625 0.6869507q-0.4375 -1.8310547E-4 -1.328125 -0.17236328q-2.984375 -0.57910156 -5.28125 -0.579834q-2.390625 -7.9345703E-4 -3.296875 0.71765137q-0.890625 0.7028198 -0.890625 1.7653198l0 1.828125l7.40625 0.0024414062q1.734375 6.1035156E-4 2.46875 0.6727295q0.734375 0.65649414 0.734375 1.7346191q0 1.0625 -0.734375 1.7341309q-0.734375 0.65600586 -2.46875 0.6553955l-7.40625 -0.0024414062z" fill-rule="nonzero"/><path fill="#000000" d="m440.36853 621.99396l-13.375 -0.0044555664l0 -2.921875l13.375 0.0044555664l0 2.921875zm14.125 -13.104675l0 17.53125l3.234375 0.0010986328q1.15625 3.6621094E-4 1.640625 0.45367432q0.5 0.43762207 0.5 1.1563721q0 0.703125 -0.5 1.1561279q-0.484375 0.4373169 -1.640625 0.43695068l-9.671875 -0.0032348633q-1.15625 -4.272461E-4 -1.65625 -0.43804932q-0.484375 -0.4533081 -0.484375 -1.1720581q0 -0.703125 0.484375 -1.1404419q0.5 -0.45300293 1.65625 -0.45257568l3.234375 0.0010375977l0 -13.359375l-2.859375 0.7490845q-0.6875 0.18725586 -1.03125 0.18713379q-0.609375 -1.8310547E-4 -1.0625 -0.4847412q-0.4375 -0.48449707 -0.4375 -1.1876221q0 -0.640625 0.328125 -0.9998779q0.328125 -0.37487793 1.375 -0.65582275l6.890625 -1.7789307z" fill-rule="nonzero"/><path fill="#000000" d="m475.14978 635.9587q0 -4.109375 1.359375 -8.296448q1.0 -3.0933838 3.109375 -6.8895874q1.53125 -2.7182007 2.25 -3.3430176q0.734375 -0.62475586 1.625 -0.6244507q1.03125 3.6621094E-4 1.734375 0.70373535q0.703125 0.70336914 0.703125 1.6877441q0 0.6875 -0.5625 1.6248169q-2.53125 4.1397705 -3.703125 7.7799683q-1.15625 3.6246338 -1.15625 7.359009q0 3.75 1.15625 7.390991q1.171875 3.6254272 3.703125 7.7825317q0.5625 0.9064331 0.5625 1.6095581q0 0.984375 -0.703125 1.6872559q-0.703125 0.70288086 -1.734375 0.70251465q-0.875 -2.4414062E-4 -1.53125 -0.5629883q-0.9375 -0.8128052 -2.484375 -3.6727295q-2.21875 -4.1569824 -3.046875 -6.8603516q-1.28125 -4.1254272 -1.28125 -8.078552zm34.117188 0.62072754l7.296875 6.2524414q1.3125 0.078552246 1.96875 0.7506714q0.65625 0.6564331 0.65625 1.6720581q0 1.046875 -0.75 1.7185059q-0.734375 0.67163086 -2.46875 0.67108154l-5.453125 -0.0018310547q-1.734375 -6.1035156E-4 -2.484375 -0.6727295q-0.734375 -0.67211914 -0.734375 -1.7658691q0 -0.84375 0.53125 -1.4841919q0.53125 -0.6560669 1.4375 -0.8901367l-3.578125 -3.0949097l-3.65625 3.0925293q1.09375 0.2816162 1.578125 0.8754883q0.484375 0.5783081 0.484375 1.5001831q0 1.09375 -0.734375 1.7653809q-0.71875 0.67163086 -2.453125 0.6710205l-5.421875 -0.0017700195q-1.734375 -6.1035156E-4 -2.46875 -0.6727295q-0.734375 -0.67211914 -0.734375 -1.7502441q0 -0.984375 0.65625 -1.6403809q0.65625 -0.67163086 1.96875 -0.7493286l7.125 -6.2788696l-6.3125 -5.392761q-1.234375 -0.094177246 -1.890625 -0.75061035q-0.640625 -0.67211914 -0.640625 -1.6564941q0 -1.0625 0.734375 -1.7185059q0.75 -0.67163086 2.484375 -0.6710205l4.5 0.0014648438q1.734375 6.1035156E-4 2.46875 0.6727295q0.734375 0.65649414 0.734375 1.6877441q0 1.390625 -1.3125 2.2495728l2.90625 2.4228516l2.859375 -2.4678345q-1.28125 -0.90667725 -1.28125 -2.1098022q0 -1.125 0.734375 -1.7810059q0.734375 -0.67163086 2.46875 -0.6710205l4.453125 0.0014648438q1.734375 6.1035156E-4 2.46875 0.6727295q0.75 0.65649414 0.75 1.7346191q0 0.96875 -0.65625 1.6403809q-0.640625 0.6560669 -1.90625 0.74938965l-6.328125 5.419739zm27.257812 -0.60028076q0 4.09375 -1.359375 8.312073q-1.0 3.0933838 -3.109375 6.8739624q-1.53125 2.7182007 -2.265625 3.3429565q-0.71875 0.64038086 -1.609375 0.6400757q-1.03125 -3.0517578E-4 -1.734375 -0.7036743q-0.703125 -0.70336914 -0.703125 -1.6877441q0 -0.703125 0.5625 -1.6091919q2.53125 -4.1553955 3.6875 -7.7800293q1.171875 -3.6401978 1.171875 -7.3901978q0 -3.734375 -1.171875 -7.3598022q-1.15625 -3.6409912 -3.6875 -7.7824707q-0.5625 -0.9376831 -0.5625 -1.6251831q0 -0.984375 0.703125 -1.6872559q0.703125 -0.70288086 1.734375 -0.7025757q0.875 3.0517578E-4 1.53125 0.5630493q0.9375 0.7971802 2.484375 3.6882935q2.21875 4.1414185 3.046875 6.8135376q1.28125 4.1566772 1.28125 8.094177z" fill-rule="nonzero"/></g></svg>