<svg version="1.1" viewBox="0.0 0.0 960.0 960.0" fill="none" stroke="none" stroke-linecap="square" stroke-miterlimit="10" xmlns:xlink="http://www.w3.org/1999/xlink" xmlns="http://www.w3.org/2000/svg"><clipPath id="p.0"><path d="m0 0l960.0 0l0 960.0l-960.0 0l0 -960.0z" clip-rule="nonzero"/></clipPath><g clip-path="url(#p.0)"><path fill="#000000" fill-opacity="0.0" d="m0 0l960.0 0l0 960.0l-960.0 0z" fill-rule="evenodd"/><path fill="#c9daf8" d="m0 160.0032l0 0c0 -88.36733 71.63587 -160.0032 160.0032 -160.0032l639.99365 0l0 0c42.435486 0 83.13287 16.857431 113.13934 46.863853c30.006409 30.006416 46.86383 70.70386 46.86383 113.13935l0 639.99365c0 88.36731 -71.635864 160.00317 -160.00317 160.00317l-639.99365 0c-88.36733 0 -160.0032 -71.635864 -160.0032 -160.00317z" fill-rule="evenodd"/><path fill="#000000" fill-opacity="0.0" d="m215.96622 755.5465l565.44885 0" fill-rule="evenodd"/><path stroke="#000000" stroke-width="8.0" stroke-linejoin="round" stroke-linecap="butt" d="m215.96622 755.5465l565.44885 0" fill-rule="evenodd"/><path fill="#000000" fill-opacity="0.0" d="m220.90562 155.8011l0 599.74805" fill-rule="evenodd"/><path stroke="#000000" stroke-width="8.0" stroke-linejoin="round" stroke-linecap="butt" d="m220.90562 155.8011l0 599.74805" fill-rule="evenodd"/><path fill="#000000" fill-opacity="0.0" d="m777.18225 753.8667l-554.86615 -593.8268" fill-rule="evenodd"/><path stroke="#000000" stroke-width="8.0" stroke-linejoin="round" stroke-linecap="butt" d="m777.18225 753.8667l-554.86615 -593.8268" fill-rule="evenodd"/><path fill="#000000" fill-opacity="0.0" d="m220.90562 688.40173l63.307083 0l0 67.1496l-63.307083 0z" fill-rule="evenodd"/><path stroke="#000000" stroke-width="8.0" stroke-linejoin="round" stroke-linecap="butt" d="m220.90562 688.40173l63.307083 0l0 67.1496l-63.307083 0z" fill-rule="evenodd"/><path fill="#000000" fill-opacity="0.0" d="m298.41125 244.48932l0 0c-2.3723145 14.731018 -11.627594 27.591064 -25.729736 35.7511c-14.102142 8.160065 -31.895996 10.95166 -49.467102 7.7607117l8.944885 -55.543304z" fill-rule="evenodd"/><path fill="#000000" fill-opacity="0.0" d="m298.41125 244.48932l0 0c-2.3723145 14.731018 -11.627594 27.591064 -25.729736 35.7511c-14.102142 8.160065 -31.895996 10.95166 -49.467102 7.7607117" fill-rule="evenodd"/><path stroke="#000000" stroke-width="8.0" stroke-linejoin="round" stroke-linecap="butt" d="m298.41125 244.48932l0 0c-2.3723145 14.731018 -11.627594 27.591064 -25.729736 35.7511c-14.102142 8.160065 -31.895996 10.95166 -49.467102 7.7607117" fill-rule="evenodd"/><path fill="#000000" fill-opacity="0.0" d="m659.00653 753.77484l0 0c-6.290039 -13.373596 -5.984436 -29.550903 0.8496094 -44.973206c6.8339844 -15.422302 19.636597 -28.826172 35.59131 -37.263l23.716553 50.42517z" fill-rule="evenodd"/><path fill="#000000" fill-opacity="0.0" d="m659.00653 753.77484l0 0c-6.290039 -13.373596 -5.984436 -29.550903 0.8496094 -44.973206c6.8339844 -15.422302 19.636597 -28.826172 35.59131 -37.263" fill-rule="evenodd"/><path stroke="#000000" stroke-width="8.0" stroke-linejoin="round" stroke-linecap="butt" d="m659.00653 753.77484l0 0c-6.290039 -13.373596 -5.984436 -29.550903 0.8496094 -44.973206c6.8339844 -15.422302 19.636597 -28.826172 35.59131 -37.263" fill-rule="evenodd"/><path fill="#000000" fill-opacity="0.0" d="m231.8513 276.55835l115.2126 0l0 77.57483l-115.2126 0z" fill-rule="evenodd"/><path fill="#000000" d="m262.3044 301.31024l0 18.796875q1.515625 0 2.234375 0.671875q0.734375 0.65625 0.734375 1.71875q0 1.046875 -0.734375 1.734375q-0.734375 0.671875 -2.234375 0.671875l0 1.921875q1.515625 0 2.234375 0.6875q0.734375 0.671875 0.734375 1.734375q0 1.046875 -0.734375 1.71875q-0.734375 0.671875 -2.46875 0.671875l-6.4531097 0q-1.734375 0 -2.46875 -0.671875q-0.734375 -0.671875 -0.734375 -1.75q0 -1.046875 0.734375 -1.71875q0.734375 -0.671875 2.46875 -0.671875l1.8749847 0l0 -1.921875l-13.04686 0l0 -4.0l11.5 -19.59375l6.3593597 0zm-4.8125 18.796875l0 -11.8125l-6.9531097 11.8125l6.9531097 0zm22.523438 -14.0l0 5.71875q2.671875 -0.84375 4.859375 -0.84375q4.421875 0 7.34375 3.03125q2.9375 3.015625 2.9375 7.796875q0 4.921875 -2.96875 7.734375q-2.953125 2.796875 -9.078125 2.796875q-5.390625 0 -8.53125 -2.046875q-1.828125 -1.171875 -1.828125 -2.6875q0 -0.96875 0.71875 -1.671875q0.71875 -0.71875 1.703125 -0.71875q0.8125 0 1.765625 0.78125q0.96875 0.78125 2.03125 1.09375q1.5 0.4375 3.84375 0.4375q4.359375 0 5.953125 -1.390625q1.59375 -1.390625 1.59375 -4.28125q0 -2.828125 -1.546875 -4.4375q-1.53125 -1.625 -3.9375 -1.625q-2.609375 0 -5.9375 1.6875q-0.75 0.390625 -1.3125 0.390625q-1.03125 0 -1.71875 -0.75q-0.6875 -0.75 -0.6875 -1.9375l0 -13.875l14.6875 0q1.734375 0 2.46875 0.671875q0.75 0.65625 0.75 1.734375q0 1.0625 -0.75 1.734375q-0.734375 0.65625 -2.46875 0.65625l-9.890625 0zm25.367188 -1.9375q0 -3.125 2.1875 -5.296875q2.1875 -2.1875 5.28125 -2.1875q3.09375 0 5.28125 2.203125q2.203125 2.1875 2.203125 5.28125q0 3.09375 -2.203125 5.28125q-2.1875 2.1875 -5.28125 2.1875q-3.09375 0 -5.28125 -2.1875q-2.1875 -2.1875 -2.1875 -5.28125zm3.890625 0q0 1.46875 1.046875 2.53125q1.0625 1.046875 2.53125 1.046875q1.484375 0 2.53125 -1.046875q1.0625 -1.0625 1.0625 -2.53125q0 -1.484375 -1.0625 -2.53125q-1.046875 -1.0625 -2.53125 -1.0625q-1.46875 0 -2.53125 1.0625q-1.046875 1.046875 -1.046875 2.53125z" fill-rule="nonzero"/><path fill="#000000" fill-opacity="0.0" d="m565.55597 654.36725l115.21265 0l0 77.57483l-115.21265 0z" fill-rule="evenodd"/><path fill="#000000" d="m596.0091 679.11914l0 18.796875q1.515625 0 2.234375 0.671875q0.734375 0.65625 0.734375 1.71875q0 1.046875 -0.734375 1.734375q-0.734375 0.671875 -2.234375 0.671875l0 1.921875q1.515625 0 2.234375 0.6875q0.734375 0.671875 0.734375 1.734375q0 1.046875 -0.734375 1.71875q-0.734375 0.671875 -2.46875 0.671875l-6.453125 0q-1.734375 0 -2.46875 -0.671875q-0.734375 -0.671875 -0.734375 -1.75q0 -1.046875 0.734375 -1.71875q0.734375 -0.671875 2.46875 -0.671875l1.875 0l0 -1.921875l-13.046875 0l0 -4.0l11.5 -19.59375l6.359375 0zm-4.8125 18.796875l0 -11.8125l-6.953125 11.8125l6.953125 0zm22.523438 -14.0l0 5.71875q2.671875 -0.84375 4.859375 -0.84375q4.421875 0 7.34375 3.03125q2.9375 3.015625 2.9375 7.796875q0 4.921875 -2.96875 7.734375q-2.953125 2.796875 -9.078125 2.796875q-5.390625 0 -8.53125 -2.046875q-1.828125 -1.171875 -1.828125 -2.6875q0 -0.96875 0.71875 -1.671875q0.71875 -0.71875 1.703125 -0.71875q0.8125 0 1.765625 0.78125q0.96875 0.78125 2.03125 1.09375q1.5 0.4375 3.84375 0.4375q4.359375 0 5.953125 -1.390625q1.59375 -1.390625 1.59375 -4.28125q0 -2.828125 -1.546875 -4.4375q-1.53125 -1.625 -3.9375 -1.625q-2.609375 0 -5.9375 1.6875q-0.75 0.390625 -1.3125 0.390625q-1.03125 0 -1.71875 -0.75q-0.6875 -0.75 -0.6875 -1.9375l0 -13.875l14.6875 0q1.734375 0 2.46875 0.671875q0.75 0.65625 0.75 1.734375q0 1.0625 -0.75 1.734375q-0.734375 0.65625 -2.46875 0.65625l-9.890625 0zm25.367188 -1.9375q0 -3.125 2.1875 -5.296875q2.1875 -2.1875 5.28125 -2.1875q3.09375 0 5.28125 2.203125q2.203125 2.1875 2.203125 5.28125q0 3.09375 -2.203125 5.28125q-2.1875 2.1875 -5.28125 2.1875q-3.09375 0 -5.28125 -2.1875q-2.1875 -2.1875 -2.1875 -5.28125zm3.890625 0q0 1.46875 1.046875 2.53125q1.0625 1.046875 2.53125 1.046875q1.484375 0 2.53125 -1.046875q1.0625 -1.0625 1.0625 -2.53125q0 -1.484375 -1.0625 -2.53125q-1.046875 -1.0625 -2.53125 -1.0625q-1.46875 0 -2.53125 1.0625q-1.046875 1.046875 -1.046875 2.53125z" fill-rule="nonzero"/></g></svg>