<svg version="1.1" viewBox="0.0 0.0 960.0 960.0" fill="none" stroke="none" stroke-linecap="square" stroke-miterlimit="10" xmlns:xlink="http://www.w3.org/1999/xlink" xmlns="http://www.w3.org/2000/svg"><clipPath id="p.0"><path d="m0 0l960.0 0l0 960.0l-960.0 0l0 -960.0z" clip-rule="nonzero"/></clipPath><g clip-path="url(#p.0)"><path fill="#000000" fill-opacity="0.0" d="m0 0l960.0 0l0 960.0l-960.0 0z" fill-rule="evenodd"/><path fill="#fce5cd" d="m0 160.0032l0 0c0 -88.36733 71.63587 -160.0032 160.0032 -160.0032l639.99365 0l0 0c42.435486 0 83.13287 16.857431 113.13934 46.863853c30.006409 30.006416 46.86383 70.70386 46.86383 113.13935l0 639.99365c0 88.36731 -71.635864 160.00317 -160.00317 160.00317l-639.99365 0c-88.36733 0 -160.0032 -71.635864 -160.0032 -160.00317z" fill-rule="evenodd"/><path fill="#000000" fill-opacity="0.0" d="m480.0 0l0 960.0" fill-rule="evenodd"/><path stroke="#000000" stroke-width="8.0" stroke-linejoin="round" stroke-linecap="butt" d="m480.0 0l0 960.0" fill-rule="evenodd"/><path fill="#000000" fill-opacity="0.0" d="m960.0 480.0l-960.0 0" fill-rule="evenodd"/><path stroke="#000000" stroke-width="8.0" stroke-linejoin="round" stroke-linecap="butt" d="m960.0 480.0l-960.0 0" fill-rule="evenodd"/><path fill="#000000" fill-opacity="0.0" d="m344.22552 137.06938l-207.14833 207.14836" fill-rule="evenodd"/><path stroke="#000000" stroke-width="8.0" stroke-linejoin="round" stroke-linecap="butt" d="m344.22552 137.06938l-207.14833 207.14836" fill-rule="evenodd"/><path fill="#000000" fill-opacity="0.0" d="m344.22552 344.2226l-207.14833 -207.14836" fill-rule="evenodd"/><path stroke="#000000" stroke-width="8.0" stroke-linejoin="round" stroke-linecap="butt" d="m344.22552 344.2226l-207.14833 -207.14836" fill-rule="evenodd"/><path fill="#000000" fill-opacity="0.0" d="m344.22574 719.3438l-207.14961 0" fill-rule="evenodd"/><path stroke="#000000" stroke-width="8.0" stroke-linejoin="round" stroke-linecap="butt" d="m344.22574 719.3438l-207.14961 0" fill-rule="evenodd"/><path fill="#000000" fill-opacity="0.0" d="m240.646 822.9262l0 -207.1496" fill-rule="evenodd"/><path stroke="#000000" stroke-width="8.0" stroke-linejoin="round" stroke-linecap="butt" d="m240.646 822.9262l0 -207.1496" fill-rule="evenodd"/><path fill="#000000" fill-opacity="0.0" d="m822.9239 719.33594l-207.1496 0" fill-rule="evenodd"/><path stroke="#000000" stroke-width="8.0" stroke-linejoin="round" stroke-linecap="butt" d="m822.9239 719.33594l-207.1496 0" fill-rule="evenodd"/><path fill="#000000" fill-opacity="0.0" d="m822.9239 240.66405l-207.1496 0" fill-rule="evenodd"/><path stroke="#000000" stroke-width="8.0" stroke-linejoin="round" stroke-linecap="butt" d="m822.9239 240.66405l-207.1496 0" fill-rule="evenodd"/><path fill="#000000" fill-opacity="0.0" d="m691.8373 173.02625l0 0c0 -15.194351 12.317444 -27.51181 27.51178 -27.51181l0 0c7.296631 0 14.294373 2.8985596 19.453796 8.058029c5.159485 5.1594543 8.058044 12.157196 8.058044 19.453781l0 0c0 15.194351 -12.317444 27.51181 -27.51184 27.51181l0 0c-15.194336 0 -27.51178 -12.317459 -27.51178 -27.51181z" fill-rule="evenodd"/><path stroke="#000000" stroke-width="8.0" stroke-linejoin="round" stroke-linecap="butt" d="m691.8373 173.02625l0 0c0 -15.194351 12.317444 -27.51181 27.51178 -27.51181l0 0c7.296631 0 14.294373 2.8985596 19.453796 8.058029c5.159485 5.1594543 8.058044 12.157196 8.058044 19.453781l0 0c0 15.194351 -12.317444 27.51181 -27.51184 27.51181l0 0c-15.194336 0 -27.51178 -12.317459 -27.51178 -27.51181z" fill-rule="evenodd"/><path fill="#000000" fill-opacity="0.0" d="m691.8373 308.30185l0 0c0 -15.194366 12.317444 -27.51181 27.51178 -27.51181l0 0c7.296631 0 14.294373 2.8985596 19.453796 8.058014c5.159485 5.1594543 8.058044 12.157196 8.058044 19.453796l0 0c0 15.194336 -12.317444 27.51181 -27.51184 27.51181l0 0c-15.194336 0 -27.51178 -12.317474 -27.51178 -27.51181z" fill-rule="evenodd"/><path stroke="#000000" stroke-width="8.0" stroke-linejoin="round" stroke-linecap="butt" d="m691.8373 308.30185l0 0c0 -15.194366 12.317444 -27.51181 27.51178 -27.51181l0 0c7.296631 0 14.294373 2.8985596 19.453796 8.058014c5.159485 5.1594543 8.058044 12.157196 8.058044 19.453796l0 0c0 15.194336 -12.317444 27.51181 -27.51184 27.51181l0 0c-15.194336 0 -27.51178 -12.317474 -27.51178 -27.51181z" fill-rule="evenodd"/></g></svg>